<svg xmlns="http://www.w3.org/2000/svg" width="16" height="16" viewBox="0 0 16 16">
    <path fill="#414141" fill-rule="nonzero" d="M5 2c0-.552.444-1 1-1 .552 0 1 .444 1 1 0 .552-.444 1-1 1-.552 0-1-.444-1-1zm4 0c0-.552.444-1 1-1 .552 0 1 .444 1 1 0 .552-.444 1-1 1-.552 0-1-.444-1-1zM5 6c0-.552.444-1 1-1 .552 0 1 .444 1 1 0 .552-.444 1-1 1-.552 0-1-.444-1-1zm4 0c0-.552.444-1 1-1 .552 0 1 .444 1 1 0 .552-.444 1-1 1-.552 0-1-.444-1-1zm-4 4c0-.552.444-1 1-1 .552 0 1 .444 1 1 0 .552-.444 1-1 1-.552 0-1-.444-1-1zm4 0c0-.552.444-1 1-1 .552 0 1 .444 1 1 0 .552-.444 1-1 1-.552 0-1-.444-1-1zm-4 4c0-.552.444-1 1-1 .552 0 1 .444 1 1 0 .552-.444 1-1 1-.552 0-1-.444-1-1zm4 0c0-.552.444-1 1-1 .552 0 1 .444 1 1 0 .552-.444 1-1 1-.552 0-1-.444-1-1z"/>
</svg>
