<svg xmlns="http://www.w3.org/2000/svg" width="36" height="48"><g fill="none" fill-rule="evenodd"><path fill="#D4D4D4" d="M36 9v38a1 1 0 0 1-1 1H1a1 1 0 0 1-1-1V1a1 1 0 0 1 1-1h26"/><path fill="#FEFEFE" d="M1 1h26l8 8v38H1z"/><path fill="#45688F" fill-rule="nonzero" d="M12.312 30.35a1.018 1.018 0 0 1-1.433.074A1.006 1.006 0 0 1 10.804 29l6.487-7.168a5.583 5.583 0 0 1 7.873-.395 5.55 5.55 0 0 1 .398 7.851l-8.487 9.377a4.074 4.074 0 0 1-5.732.299 4.023 4.023 0 0 1-.3-5.702l7.825-8.646a2.52 2.52 0 0 1 3.546-.185c1.03.923 1.116 2.5.193 3.529l-7.111 7.924a1.018 1.018 0 0 1-1.433.08 1.006 1.006 0 0 1-.08-1.425l7.11-7.924a.484.484 0 0 0-.717-.648l-7.825 8.645a2.011 2.011 0 0 0 .15 2.852 2.036 2.036 0 0 0 2.866-.15l8.487-9.376a3.538 3.538 0 0 0-.254-5.006l-.01-.01a3.546 3.546 0 0 0-4.99.26l-6.488 7.169z"/><path fill="#D4D4D4" fill-rule="nonzero" d="M27 1v8h8l-8-8zm.707-.707l8 8c.63.63.184 1.707-.707 1.707h-8a1 1 0 0 1-1-1V1c0-.89 1.077-1.337 1.707-.707z"/></g></svg>