<svg xmlns="http://www.w3.org/2000/svg" width="36" height="48"><g fill="none" fill-rule="evenodd"><path fill="#D4D4D4" d="M36 9v38a1 1 0 0 1-1 1H1a1 1 0 0 1-1-1V1a1 1 0 0 1 1-1h26"/><path fill="#FEFEFE" d="M1 1h26l8 8v38H1z"/><path fill="#2192EF" fill-rule="nonzero" d="M26.188 33.406a1 1 0 0 1 1.624 1.167l-3.6 4.997a1 1 0 0 1-1.428.203l-2.4-1.873a.999.999 0 1 1 1.232-1.575l1.58 1.234 2.992-4.153zM18 29.993c-2.761 0-5-2.237-5-4.997A4.998 4.998 0 0 1 18 20c2.761 0 5 2.237 5 4.996a4.998 4.998 0 0 1-5 4.997zm0-1.999a2.999 2.999 0 1 0-3-2.998 2.999 2.999 0 0 0 3 2.998zM17.997 38a.99.99 0 0 1 1.006.983 1 1 0 0 1-.997 1.002l-5 .015A2 2 0 0 1 11 38.006v-2a7.015 7.015 0 0 1 6.997-7.013 6.97 6.97 0 0 1 5.275 2.382.999.999 0 1 1-1.505 1.317 4.969 4.969 0 0 0-3.764-1.7A5.016 5.016 0 0 0 13 36.006v2L17.997 38z"/><path fill="#D4D4D4" fill-rule="nonzero" d="M27 1v8h8l-8-8zm.707-.707l8 8c.63.63.184 1.707-.707 1.707h-8a1 1 0 0 1-1-1V1c0-.89 1.077-1.337 1.707-.707z"/></g></svg>