<svg xmlns="http://www.w3.org/2000/svg" width="36" height="48"><path fill="#D4D4D4" d="M36 9.002v38a1 1 0 0 1-1 1H1a1 1 0 0 1-1-1v-46a1 1 0 0 1 1-1h26"/><path fill="#FEFEFE" d="M1 1.002h26l8 8v38H1z"/><path fill="#D4D4D4" d="M5.5 15.002h11a.5.5 0 0 1 0 1h-11a.5.5 0 1 1 0-1zm0 6h25a.5.5 0 0 1 0 1h-25a.5.5 0 1 1 0-1zm0-2h25a.5.5 0 0 1 0 1h-25a.5.5 0 1 1 0-1zm0 4h25a.5.5 0 0 1 0 1h-25a.5.5 0 1 1 0-1zm0 9h25a.5.5 0 0 1 0 1h-25a.5.5 0 1 1 0-1zm0 2h25a.5.5 0 0 1 0 1h-25a.5.5 0 1 1 0-1zm0 2h10a.5.5 0 0 1 0 1h-10a.5.5 0 1 1 0-1zm0 2h10a.5.5 0 0 1 0 1h-10a.5.5 0 1 1 0-1zm.5-12h10a1 1 0 0 1 1 1v2a1 1 0 0 1-1 1H6a1 1 0 0 1-1-1v-2a1 1 0 0 1 1-1zm0 1v2h10v-2H6zm14-1h10a1 1 0 0 1 1 1v2a1 1 0 0 1-1 1H20a1 1 0 0 1-1-1v-2a1 1 0 0 1 1-1zm0 1v2h10v-2H20zm0 9h10a1 1 0 0 1 1 1v1a1 1 0 0 1-1 1H20a1 1 0 0 1-1-1v-1a1 1 0 0 1 1-1zm0 1v1h10v-1H20zm7-36v8h8l-8-8zm.707-.707l8 8c.63.63.184 1.707-.707 1.707h-8a1 1 0 0 1-1-1v-8c0-.89 1.077-1.337 1.707-.707z"/></svg>