<svg xmlns="http://www.w3.org/2000/svg" width="36" height="48"><g fill="none" fill-rule="evenodd"><path fill="#D4D4D4" d="M36 9v38a1 1 0 0 1-1 1H1a1 1 0 0 1-1-1V1a1 1 0 0 1 1-1h26"/><path fill="#FEFEFE" d="M1 1h26l8 8v38H1z"/><path fill="#D4D4D4" fill-rule="nonzero" d="M27 1v8h8l-8-8zm.707-.707l8 8c.63.63.184 1.707-.707 1.707h-8a1 1 0 0 1-1-1V1c0-.89 1.077-1.337 1.707-.707z"/><path fill="#1E3888" fill-rule="nonzero" d="M10 25a2 2 0 1 1 0-4 2 2 0 0 1 0 4zm0 7a2 2 0 1 1 0-4 2 2 0 0 1 0 4zm0 7a2 2 0 1 1 0-4 2 2 0 0 1 0 4zm5-17h12a1 1 0 0 1 0 2H15a1 1 0 0 1 0-2zm0 7h12a1 1 0 0 1 0 2H15a1 1 0 0 1 0-2zm0 7h12a1 1 0 0 1 0 2H15a1 1 0 0 1 0-2z"/></g></svg>