<svg xmlns="http://www.w3.org/2000/svg" width="36" height="48"><g fill="none" fill-rule="evenodd"><path fill="#D4D4D4" d="M36 9v38a1 1 0 0 1-1 1H1a1 1 0 0 1-1-1V1a1 1 0 0 1 1-1h26"/><path fill="#FEFEFE" d="M1 1h26l8 8v38H1z"/><path fill="#D4D4D4" fill-rule="nonzero" d="M27 1v8h8l-8-8zm.707-.707l8 8c.63.63.184 1.707-.707 1.707h-8a1 1 0 0 1-1-1V1c0-.89 1.077-1.337 1.707-.707z"/><path fill="#FF9000" fill-rule="nonzero" d="M26 22h1.5a.5.5 0 1 1 0 1H26v1.5a.5.5 0 1 1-1 0V23h-1.5a.5.5 0 1 1 0-1H25v-1.5a.5.5 0 1 1 1 0V22zm-8 1h1a.5.5 0 1 1 0 1h-1v1a.5.5 0 1 1-1 0v-1h-1a.5.5 0 1 1 0-1h1v-1a.5.5 0 1 1 1 0v1zm7 7h1a.5.5 0 1 1 0 1h-1v1a.5.5 0 1 1-1 0v-1h-1a.5.5 0 1 1 0-1h1v-1a.5.5 0 1 1 1 0v1zM9.707 39.707a1 1 0 1 1-1.414-1.414l12-12a1 1 0 0 1 1.414 1.414l-12 12z"/></g></svg>