<svg xmlns="http://www.w3.org/2000/svg" width="36" height="48"><g fill="none" fill-rule="evenodd"><path fill="#D4D4D4" d="M36 9v38a1 1 0 0 1-1 1H1a1 1 0 0 1-1-1V1a1 1 0 0 1 1-1h26"/><path fill="#FEFEFE" d="M1 1h26l8 8v38H1z"/><path fill="#3BB273" fill-rule="nonzero" d="M17 28.918v-5.821c-1.783.32-3 1.41-3 2.903 0 1.579 1.117 2.628 3 2.918zm2-5.87v6.02c2.954.362 5 2.137 5 4.932 0 2.733-2.159 4.54-5 4.923V40a1 1 0 0 1-2 0v-1.035c-1.573-.135-2.828-.664-3.726-1.61a1 1 0 0 1 1.452-1.377c.504.532 1.252.864 2.274.978v-6.022c-2.953-.355-5-2.132-5-4.934 0-2.733 2.17-4.547 5-4.926V20a1 1 0 0 1 2 0v1.039c1.57.143 2.827.69 3.731 1.658a1 1 0 1 1-1.462 1.365c-.513-.55-1.258-.892-2.269-1.013zm0 8.037V36.9c1.793-.322 3-1.407 3-2.9 0-1.571-1.116-2.62-3-2.915z"/><path fill="#D4D4D4" fill-rule="nonzero" d="M27 1v8h8l-8-8zm.707-.707l8 8c.63.63.184 1.707-.707 1.707h-8a1 1 0 0 1-1-1V1c0-.89 1.077-1.337 1.707-.707z"/></g></svg>